<svg width="68" height="186" viewBox="0 0 68 186" fill="none" xmlns="http://www.w3.org/2000/svg">
<mask id="mask0_167_1552" style="mask-type:alpha" maskUnits="userSpaceOnUse" x="0" y="0" width="70" height="186">
<path d="M10.9819 1.73047H58.5616C63.522 1.73047 67.5435 5.76227 67.5435 10.7358V175.265C67.5435 180.238 63.522 184.27 58.5616 184.27H10.9819C6.02133 184.27 2 180.238 2 175.265V10.7358C2 5.76227 6.02133 1.73047 10.9819 1.73047Z" fill="#0A090F" stroke="url(#paint0_linear_167_1552)" stroke-width="3.19048"/>
</mask>
<g mask="url(#mask0_167_1552)">
<path d="M26.8845 113.02C28.3002 113.507 28.893 114.104 28.9678 114.482C29.0368 114.818 28.7606 115.537 27.7535 116.471C26.7579 117.092 25.7105 117.706 24.6459 118.327C21.978 119.833 19.4011 121.496 16.9287 123.31C-2.63771 138.344 -13.0079 158.471 -13.8653 183.128C-14.0207 187.6 -15.4134 188.969 -19.8331 188.981H-20.984C-26.1173 188.992 -31.4233 189.004 -36.6372 188.969C-38.7722 188.952 -40.349 188.43 -41.1719 187.566C-41.9949 186.701 -42.3805 185.28 -42.3172 183.337C-41.3388 154.347 -31.0147 129.8 -11.5692 110.201C-8.8491 107.459 -5.95247 104.818 -2.87943 102.278C-1.26807 100.943 -0.387596 100.868 1.41943 101.9C9.53842 106.413 18.0653 110.136 26.8845 113.02Z" fill="url(#paint1_linear_167_1552)"/>
<path d="M-20.892 67.8002L-19.7008 69.2562C-17.32 72.2868 -14.7865 75.1928 -12.1101 77.9621C8.05472 97.486 32.3113 107.77 59.9861 108.542C62.1213 108.594 63.5827 108.211 64.4634 107.347L64.4979 107.312C65.3728 106.43 65.8044 104.928 65.8161 102.724L65.8214 102.567C65.8447 96.8596 65.8564 90.9317 65.8214 85.1663C65.7699 81.6338 64.1527 80.0041 60.5905 79.8936C37.7208 79.2905 18.5803 70.1377 3.68106 52.6962C0.124165 48.4297 -2.96668 43.7898 -5.53812 38.8565C-6.55672 36.9598 -7.18404 36.6408 -8.00698 36.7047C-8.82991 36.7685 -9.00833 37.1687 -9.65862 39.1118C-12.6634 48.2031 -16.475 57.0031 -21.0474 65.4048C-21.6804 66.5531 -21.5596 66.9766 -20.892 67.8002Z" fill="url(#paint2_linear_167_1552)"/>
<path d="M65.8908 130.455C65.8835 128.606 65.8816 126.756 65.8855 124.904C65.9137 124.235 65.8039 123.567 65.5631 122.943C65.3228 122.319 64.9562 121.753 64.4867 121.279C63.5546 120.409 62.2884 120.014 60.3318 120.049C44.2184 120.049 28.1394 127.044 16.2557 139.022C4.34323 151.028 -2.49351 167.2 -2.45898 183.406C-2.46472 187.426 -0.968465 188.934 3.04839 188.957C9.11974 189.009 15.0932 188.997 20.802 188.939C24.3124 188.881 25.7857 187.489 25.9929 183.905C27.1669 163.51 40.5525 150.031 60.9129 148.708C64.3372 148.494 65.8277 147.015 65.8505 143.731C65.9025 139.352 65.9253 134.863 65.8908 130.455Z" fill="url(#paint3_linear_167_1552)"/>
<path d="M-2.47645 5.43477C-2.02181 19.9645 2.57055 32.8296 11.151 43.6472C23.8001 59.5865 40.5063 67.9215 60.8153 68.4263C61.4926 68.5436 62.1883 68.4984 62.8452 68.2939C63.5026 68.0895 64.1022 67.7317 64.5964 67.2498C65.0902 66.7674 65.4645 66.175 65.6883 65.5193C65.9121 64.8641 65.9796 64.1651 65.8849 63.4783C65.9714 56.9648 65.9714 50.6309 65.8791 44.6333C65.8277 41.4257 64.3255 39.8539 61.2639 39.8306C51.8873 39.7483 42.9204 35.9472 36.304 29.2502C29.6876 22.5533 25.9542 13.4994 25.9121 4.04848C25.9121 0.41748 23.4202 -0.400336 21.3485 -0.423536C17.4992 -0.49572 13.5977 -0.49423 9.74413 -0.49274H9.7418L9.7404 -0.492726L9.73743 -0.492711C8.63863 -0.492283 7.54372 -0.491869 6.45502 -0.493149L1.95476 -0.469945C1.36076 -0.478955 0.771208 -0.365853 0.222046 -0.13747C-0.327096 0.0909095 -0.82429 0.429752 -1.23915 0.858314C-2.20596 1.89077 -2.57428 3.21324 -2.47645 5.43477Z" fill="url(#paint4_linear_167_1552)"/>
<path d="M62.7831 24.8078C58.0815 28.491 50.2148 27.6267 44.88 22.8182C39.695 18.149 37.7153 12.6619 38.8317 6.06113L38.8547 5.91032L38.9468 5.7131C41.4789 0.0171884 45.6684 -1.52569 48.73 -1.82731C54.2027 -2.35514 60.4352 0.736459 63.894 5.69572C68.8141 12.7431 68.3713 20.4169 62.7831 24.8078Z" fill="url(#paint5_linear_167_1552)"/>
<path d="M44.88 165.599C40.2129 170.304 38.1066 175.187 38.5497 180.1C38.7688 182.779 39.9395 185.287 41.8469 187.164C43.7542 189.042 46.2698 190.163 48.9314 190.321C51.3513 190.378 53.7579 189.938 56.0034 189.027C58.2489 188.116 60.2865 186.752 61.9916 185.021C63.6967 183.289 65.0338 181.225 65.9209 178.955C66.8084 176.685 67.2269 174.256 67.1511 171.817C66.9802 169.137 65.8471 166.611 63.9628 164.712C62.0785 162.813 59.5724 161.671 56.9132 161.499C54.7343 161.295 52.5378 161.555 50.4647 162.262C48.392 162.968 46.4893 164.105 44.88 165.599Z" fill="url(#paint6_linear_167_1552)"/>
</g>
<defs>
<linearGradient id="paint0_linear_167_1552" x1="35.5878" y1="165.754" x2="31.3201" y2="8.31564" gradientUnits="userSpaceOnUse">
<stop stop-color="#D95DB0"/>
<stop offset="1" stop-color="#3344DC"/>
</linearGradient>
<linearGradient id="paint1_linear_167_1552" x1="-43.4473" y1="236.719" x2="77.4807" y2="168.276" gradientUnits="userSpaceOnUse">
<stop stop-color="#4299E1"/>
<stop offset="1" stop-color="#BEE3F8"/>
</linearGradient>
<linearGradient id="paint2_linear_167_1552" x1="-22.8385" y1="147.603" x2="91.0132" y2="51.1851" gradientUnits="userSpaceOnUse">
<stop stop-color="#4299E1"/>
<stop offset="1" stop-color="#BEE3F8"/>
</linearGradient>
<linearGradient id="paint3_linear_167_1552" x1="-3.53629" y1="226.467" x2="100.071" y2="154.864" gradientUnits="userSpaceOnUse">
<stop stop-color="#4299E1"/>
<stop offset="1" stop-color="#BEE3F8"/>
</linearGradient>
<linearGradient id="paint4_linear_167_1552" x1="-3.57005" y1="105.988" x2="100.116" y2="34.2944" gradientUnits="userSpaceOnUse">
<stop stop-color="#4299E1"/>
<stop offset="1" stop-color="#BEE3F8"/>
</linearGradient>
<linearGradient id="paint5_linear_167_1552" x1="38.0771" y1="42.8361" x2="81.6384" y2="12.6889" gradientUnits="userSpaceOnUse">
<stop stop-color="#4299E1"/>
<stop offset="1" stop-color="#BEE3F8"/>
</linearGradient>
<linearGradient id="paint6_linear_167_1552" x1="38.0403" y1="206.032" x2="81.4703" y2="176.001" gradientUnits="userSpaceOnUse">
<stop stop-color="#4299E1"/>
<stop offset="1" stop-color="#BEE3F8"/>
</linearGradient>
</defs>
</svg>
