<svg width="406" height="762" viewBox="0 0 406 762" fill="none" xmlns="http://www.w3.org/2000/svg">
<path d="M44.1654 117.105C61.1167 117.984 77.7383 112.157 90.4233 100.884C106.5 84.8048 115.084 69.2879 116.722 53.3958C117.882 46.225 117.326 38.8815 115.103 31.9653C112.89 25.0492 109.058 18.7567 103.942 13.602C98.8256 8.44727 92.5598 4.57674 85.6617 2.30648C78.7635 0.0363168 71.4246 -0.569284 64.2486 0.539594C28.7921 3.93837 -1.08743 37.7617 0.178194 72.7804C0.370767 84.4194 5.05677 95.533 13.255 103.795C21.4542 112.057 32.5306 116.826 44.1654 117.105Z" fill="url(#paint0_linear_148_1509)"/>
<path d="M5.66223 259.874V257.999C5.65361 253.929 5.64213 249.831 5.63159 245.713C5.58273 227.352 5.53198 208.598 5.68527 190.141C5.77916 182.36 7.37241 176.922 10.6768 173.616C13.9812 170.312 19.1606 168.741 26.6594 168.319C108.119 163.866 163.659 108.267 168.229 26.7207C169.053 11.4616 174.791 6.0002 190.169 5.85953C213.507 5.62514 237.383 5.69546 259.859 5.81265C269.373 5.95329 275.936 7.82845 279.385 11.2741C282.824 14.7197 284.328 20.9077 284.07 30.0257C281.962 98.4692 256.065 158.545 207.174 208.612C157.987 256.171 98.7011 281.673 31.1825 284.04C21.2933 284.415 14.7784 282.775 11.1223 279.399C7.46632 276.024 5.70918 269.625 5.66223 259.874Z" fill="url(#paint1_linear_148_1509)"/>
<path d="M270.762 359.306C237.335 340.834 202.26 325.502 166.006 313.505L165.393 313.317C157.68 310.668 156.166 309.614 155.764 306.636C155.592 305.63 155.687 304.597 156.032 303.637C156.377 302.677 156.962 301.822 157.728 301.152C159.673 299.385 161.848 297.901 164.195 296.745C186.902 284.752 208.075 270.05 227.237 252.96C292.252 193.94 326.857 119.425 330.096 31.5267C330.843 10.8061 335.787 6.04782 356.481 5.97748C373.372 5.96185 390.263 5.96186 407.154 5.97752L419.638 5.9541C430.722 5.97756 437.966 7.87619 441.386 11.439C444.806 15.0019 446.31 21.7524 445.956 32.0893C442.047 145.561 400.802 241.803 319.835 326.303C317.066 328.693 314.067 331.225 310.877 333.897C309.852 334.772 308.807 335.66 307.744 336.562C299.801 343.308 291.044 350.743 282.383 358.414C278.494 361.837 276.29 362.446 270.762 359.306Z" fill="url(#paint2_linear_148_1509)"/>
<path d="M612.412 464.478C618.18 466.447 620.594 468.861 620.901 470.385C621.178 471.745 620.057 474.651 615.957 478.425C611.904 480.933 607.631 483.417 603.301 485.925C592.436 492.009 581.945 498.733 571.876 506.06C492.193 566.815 449.961 648.151 446.473 747.792C445.841 765.864 440.169 771.396 422.167 771.443H417.482C396.577 771.49 374.972 771.537 353.741 771.396C345.042 771.326 338.622 769.216 335.269 765.723C331.925 762.231 330.354 756.488 330.613 748.636C334.599 631.485 376.639 532.289 455.824 453.086C466.899 442.007 478.693 431.335 491.206 421.068C497.769 415.677 501.361 415.373 508.719 419.544C541.783 437.78 576.503 452.826 612.412 464.478Z" fill="url(#paint3_linear_148_1509)"/>
<path d="M28.2997 331.037C161.359 335.49 271.298 389.19 355.054 490.59C361.147 497.997 361.521 502.028 356.931 510.091C339.418 541.583 324.999 574.693 313.856 608.96L313.032 611.515C310.34 619.929 309.238 620.891 306.172 621.101C301.622 621.476 299.658 618.992 294.896 610.061C280.458 582.965 262.015 558.201 240.199 536.602C182.082 479.643 111.587 449.453 30.667 446.898C10.7707 446.266 5.63829 441.039 5.63829 421.396L5.61432 404.403C5.56833 387.698 5.57602 370.986 5.63829 354.266C5.68524 345.687 7.53623 339.475 11.1453 335.866L11.3331 335.678C14.8243 332.326 20.5192 330.755 28.2997 331.037Z" fill="url(#paint4_linear_148_1509)"/>
<path d="M279.289 766.028C275.677 769.685 269.564 771.442 260.185 771.442C237.929 771.536 214.207 771.63 190.494 771.208C174.562 771.208 169.005 765.793 168.162 749.48C163.965 669.48 107.228 612.873 27.0111 608.725C11.38 607.952 5.80306 602.373 5.63923 587.348C5.4045 564.143 5.49843 540.61 5.68525 515.154C5.8031 507.114 7.2555 501.676 10.8416 498.09C14.4267 494.504 20.0985 492.957 28.3706 492.981C95.7885 493.098 162.327 524.155 220.913 582.753C258.901 621.828 281.818 681.551 283.974 746.761C284.395 756.23 282.901 762.371 279.289 766.028Z" fill="url(#paint5_linear_148_1509)"/>
<path d="M86.7155 774.314C80.2772 776.566 73.4365 777.418 66.6438 776.811C33.6428 774.983 3.31783 745.636 0.388029 712.938C-0.520227 705.798 0.170523 698.546 2.41242 691.706C4.65432 684.867 8.38986 678.612 13.3479 673.396L13.9103 672.833C19.2956 667.849 25.7454 664.157 32.77 662.037C39.7946 659.917 47.2102 659.425 54.4532 660.598C70.4569 662.637 84.0042 669.856 98.2316 684.085C109.192 695.471 115.783 710.364 116.837 726.135C117.537 732.908 116.77 739.753 114.595 746.204C112.411 752.655 108.866 758.562 104.21 763.521L103.97 763.755C99.0364 768.463 93.1538 772.063 86.7155 774.314Z" fill="url(#paint6_linear_148_1509)"/>
<defs>
<linearGradient id="paint0_linear_148_1509" x1="-1.70677" y1="180.896" x2="174.916" y2="57.821" gradientUnits="userSpaceOnUse">
<stop stop-color="#4299E1"/>
<stop offset="1" stop-color="#BEE3F8"/>
</linearGradient>
<linearGradient id="paint1_linear_148_1509" x1="1.19433" y1="435.421" x2="420.852" y2="142.815" gradientUnits="userSpaceOnUse">
<stop stop-color="#4299E1"/>
<stop offset="1" stop-color="#BEE3F8"/>
</linearGradient>
<linearGradient id="paint2_linear_148_1509" x1="151.106" y1="554.544" x2="642.088" y2="275.014" gradientUnits="userSpaceOnUse">
<stop stop-color="#4299E1"/>
<stop offset="1" stop-color="#BEE3F8"/>
</linearGradient>
<linearGradient id="paint3_linear_148_1509" x1="326.011" y1="964.356" x2="816.613" y2="684.545" gradientUnits="userSpaceOnUse">
<stop stop-color="#4299E1"/>
<stop offset="1" stop-color="#BEE3F8"/>
</linearGradient>
<linearGradient id="paint4_linear_148_1509" x1="-3.02149e-06" y1="778.85" x2="460.145" y2="387.059" gradientUnits="userSpaceOnUse">
<stop stop-color="#4299E1"/>
<stop offset="1" stop-color="#BEE3F8"/>
</linearGradient>
<linearGradient id="paint5_linear_148_1509" x1="1.11121" y1="922.934" x2="420.934" y2="630.343" gradientUnits="userSpaceOnUse">
<stop stop-color="#4299E1"/>
<stop offset="1" stop-color="#BEE3F8"/>
</linearGradient>
<linearGradient id="paint6_linear_148_1509" x1="-1.84484" y1="840.614" x2="174.569" y2="717.597" gradientUnits="userSpaceOnUse">
<stop stop-color="#4299E1"/>
<stop offset="1" stop-color="#BEE3F8"/>
</linearGradient>
</defs>
</svg>
