<svg width="119" height="419" viewBox="0 0 119 419" fill="none" xmlns="http://www.w3.org/2000/svg">
<path d="M23.8164 63.1491C32.9574 63.6234 41.9207 60.4812 48.7611 54.4023C57.4304 45.7313 62.0595 37.3637 62.943 28.7939C63.5681 24.927 63.2685 20.967 62.0699 17.2374C60.8764 13.5079 58.8099 10.1146 56.051 7.33492C53.2921 4.55522 49.9132 2.46802 46.1934 1.24378C42.4735 0.019584 38.516 -0.306988 34.6463 0.290978C15.5263 2.12378 -0.586377 20.3631 0.0961127 39.2471C0.199959 45.5235 2.7269 51.5165 7.14784 55.9716C11.5693 60.4269 17.5422 62.9988 23.8164 63.1491Z" fill="url(#paint0_linear_166_1517)"/>
<path d="M3.05343 140.138V139.127C3.04878 136.932 3.04259 134.723 3.03691 132.502C3.01056 122.6 2.98319 112.488 3.06585 102.534C3.11649 98.3383 3.97565 95.4058 5.75756 93.6234C7.53947 91.8414 10.3325 90.9941 14.3763 90.7668C58.3036 88.3654 88.2535 58.3836 90.7179 14.4095C91.1623 6.18094 94.257 3.23584 102.549 3.15999C115.135 3.03359 128.009 3.07151 140.13 3.13471C145.26 3.21055 148.799 4.22174 150.659 6.07979C152.514 7.93785 153.325 11.2748 153.186 16.1917C152.049 53.1001 138.084 85.496 111.72 112.495C85.195 138.141 53.2249 151.893 16.8153 153.17C11.4825 153.372 7.96934 152.487 5.99781 150.667C4.02629 148.847 3.07875 145.396 3.05343 140.138Z" fill="url(#paint1_linear_166_1517)"/>
<path d="M146.009 193.757C127.984 183.796 109.069 175.528 89.5193 169.059L89.1887 168.957C85.0297 167.529 84.2133 166.961 83.9964 165.355C83.9034 164.812 83.955 164.255 84.141 163.738C84.327 163.22 84.6422 162.759 85.0555 162.398C86.1043 161.444 87.2771 160.645 88.5429 160.021C100.787 153.554 112.205 145.626 122.538 136.41C157.598 104.583 176.259 64.4006 178.005 17.001C178.408 5.82739 181.074 3.26148 192.234 3.22354C201.342 3.21512 210.451 3.21512 219.559 3.22356L226.291 3.21094C232.269 3.22359 236.174 4.24743 238.019 6.16871C239.863 8.08997 240.674 11.7302 240.483 17.3044C238.375 78.4942 216.134 130.393 172.472 175.96C170.979 177.249 169.362 178.615 167.641 180.055C167.089 180.527 166.525 181.006 165.952 181.492C161.669 185.13 156.947 189.14 152.276 193.276C150.179 195.122 148.99 195.45 146.009 193.757Z" fill="url(#paint2_linear_166_1517)"/>
<path d="M15.2607 178.513C87.0135 180.915 146.299 209.873 191.464 264.553C194.75 268.547 194.951 270.721 192.476 275.069C183.032 292.051 175.257 309.906 169.248 328.384L168.804 329.762C167.352 334.299 166.758 334.818 165.105 334.932C162.65 335.134 161.591 333.794 159.024 328.978C151.238 314.367 141.292 301.012 129.528 289.365C98.1885 258.65 60.1737 242.37 16.5373 240.992C5.80808 240.651 3.04042 237.832 3.04042 227.24L3.02749 218.076C3.00269 209.068 3.00684 200.056 3.04042 191.04C3.06574 186.413 4.06389 183.064 6.0101 181.117L6.11135 181.016C7.99401 179.208 11.065 178.362 15.2607 178.513Z" fill="url(#paint3_linear_166_1517)"/>
<path d="M150.607 413.083C148.66 415.056 145.363 416.003 140.306 416.003C128.304 416.054 115.512 416.104 102.725 415.877C94.1329 415.877 91.1363 412.957 90.6817 404.16C88.4188 361.02 57.823 330.495 14.5658 328.257C6.13669 327.841 3.12929 324.832 3.04094 316.73C2.91436 304.216 2.96501 291.526 3.06576 277.799C3.1293 273.464 3.91252 270.531 5.84632 268.597C7.77961 266.663 10.8382 265.829 15.2989 265.842C51.6542 265.905 87.5353 282.653 119.128 314.252C139.613 335.323 151.971 367.529 153.134 402.694C153.361 407.8 152.555 411.111 150.607 413.083Z" fill="url(#paint4_linear_166_1517)"/>
<path d="M46.7616 417.552C43.2898 418.766 39.6009 419.225 35.9379 418.898C18.142 417.912 1.78915 402.087 0.209246 384.454C-0.280534 380.604 0.0919552 376.693 1.30091 373.005C2.50986 369.317 4.52426 365.944 7.19791 363.131L7.50117 362.827C10.4052 360.14 13.8833 358.149 17.6713 357.006C21.4594 355.862 25.4582 355.597 29.3641 356.23C37.9941 357.329 45.2995 361.222 52.9717 368.895C58.8822 375.035 62.4366 383.066 63.005 391.57C63.3821 395.223 62.9688 398.914 61.796 402.393C60.6181 405.872 58.7065 409.057 56.1956 411.731L56.0664 411.858C53.4057 414.396 50.2335 416.337 46.7616 417.552Z" fill="url(#paint5_linear_166_1517)"/>
<defs>
<linearGradient id="paint0_linear_166_1517" x1="-0.920359" y1="97.5485" x2="94.3243" y2="31.1802" gradientUnits="userSpaceOnUse">
<stop stop-color="#4269E1"/>
<stop offset="1" stop-color="#BEE3F8"/>
</linearGradient>
<linearGradient id="paint1_linear_166_1517" x1="0.644098" y1="234.803" x2="226.946" y2="77.0136" gradientUnits="userSpaceOnUse">
<stop stop-color="#4269E1"/>
<stop offset="1" stop-color="#BEE3F8"/>
</linearGradient>
<linearGradient id="paint2_linear_166_1517" x1="81.4844" y1="299.04" x2="346.248" y2="148.303" gradientUnits="userSpaceOnUse">
<stop stop-color="#4269E1"/>
<stop offset="1" stop-color="#BEE3F8"/>
</linearGradient>
<linearGradient id="paint3_linear_166_1517" x1="-4.9131e-05" y1="419.998" x2="248.135" y2="208.723" gradientUnits="userSpaceOnUse">
<stop stop-color="#4269E1"/>
<stop offset="1" stop-color="#BEE3F8"/>
</linearGradient>
<linearGradient id="paint4_linear_166_1517" x1="0.599184" y1="497.696" x2="226.99" y2="339.915" gradientUnits="userSpaceOnUse">
<stop stop-color="#4269E1"/>
<stop offset="1" stop-color="#BEE3F8"/>
</linearGradient>
<linearGradient id="paint5_linear_166_1517" x1="-0.994839" y1="453.304" x2="94.1371" y2="386.967" gradientUnits="userSpaceOnUse">
<stop stop-color="#4269E1"/>
<stop offset="1" stop-color="#BEE3F8"/>
</linearGradient>
</defs>
</svg>
